<svg width="18" height="18" viewBox="0 0 18 18" version="1.1" xmlns="http://www.w3.org/2000/svg" xmlns:xlink="http://www.w3.org/1999/xlink">
<title>&#239;&#129;&#152;</title>
<desc>Created using Figma</desc>
<g id="Canvas" transform="translate(1 -1584)">
<g id="&#239;&#129;&#152;">
<use xlink:href="#path0_fill" transform="translate(-1 1582.79)" fill="#F9A18A"/>
</g>
</g>
<defs>
<path id="path0_fill" d="M 14.3304 8.04911C 14.3304 7.84077 14.2634 7.66964 14.1295 7.53571L 13.1138 6.53125C 12.9725 6.38988 12.8051 6.3192 12.6116 6.3192C 12.4182 6.3192 12.2507 6.38988 12.1094 6.53125L 7.5558 11.0737L 5.03348 8.55134C 4.89211 8.40997 4.7247 8.33929 4.53125 8.33929C 4.3378 8.33929 4.17039 8.40997 4.02902 8.55134L 3.01339 9.5558C 2.87946 9.68973 2.8125 9.86086 2.8125 10.0692C 2.8125 10.2701 2.87946 10.4375 3.01339 10.5714L 7.05357 14.6116C 7.19494 14.753 7.36235 14.8237 7.5558 14.8237C 7.7567 14.8237 7.92783 14.753 8.0692 14.6116L 14.1295 8.55134C 14.2634 8.41741 14.3304 8.25 14.3304 8.04911ZM 15.9933 5.56027C 16.7597 6.86979 17.1429 8.30208 17.1429 9.85714C 17.1429 11.4122 16.7597 12.8482 15.9933 14.1652C 15.2269 15.4747 14.1853 16.5126 12.8683 17.279C 11.5588 18.0454 10.1265 18.4286 8.57143 18.4286C 7.01637 18.4286 5.58036 18.0454 4.26339 17.279C 2.95387 16.5126 1.91592 15.4747 1.14955 14.1652C 0.383185 12.8482 0 11.4122 0 9.85714C 0 8.30208 0.383185 6.86979 1.14955 5.56027C 1.91592 4.2433 2.95387 3.20164 4.26339 2.43527C 5.58036 1.6689 7.01637 1.28571 8.57143 1.28571C 10.1265 1.28571 11.5588 1.6689 12.8683 2.43527C 14.1853 3.20164 15.2269 4.2433 15.9933 5.56027Z"/>
</defs>
</svg>
