<svg width="80" height="80" viewBox="0 0 80 80" version="1.1" xmlns="http://www.w3.org/2000/svg" xmlns:xlink="http://www.w3.org/1999/xlink">
<title>goal</title>
<desc>Created using Figma</desc>
<g id="Canvas" transform="translate(41 -441)">
<g id="goal">
<g id="Group">
<g id="Group">
<g id="Vector">
<use xlink:href="#path0_fill" transform="translate(-41 441)" fill="#008ED4"/>
</g>
</g>
</g>
</g>
</g>
<defs>
<path id="path0_fill" d="M 80 10.2853L 68.0005 11.9992L 69.7148 0L 60.5875 9.12703C 54.3747 4.89766 46.8705 2.42422 38.7878 2.42422C 17.3658 2.42422 0 19.79 0 41.2122C 0 62.6344 17.3658 80 38.7878 80C 60.2097 80 77.5756 62.6342 77.5756 41.2122C 77.5756 33.1295 75.1022 25.625 70.8728 19.4122L 80 10.2853ZM 38.7878 70.303C 22.7214 70.303 9.69688 57.2784 9.69688 41.212C 9.69688 25.1456 22.7214 12.1212 38.7878 12.1212C 45.5103 12.1212 51.6994 14.4027 56.6253 18.2319L 49.6869 25.1703C 46.5806 23.0556 42.8289 21.8183 38.7877 21.8183C 28.0766 21.8183 19.3938 30.5012 19.3938 41.2122C 19.3938 51.9231 28.0767 60.6061 38.7877 60.6061C 49.4986 60.6061 58.1816 51.9231 58.1816 41.2122C 58.1816 37.1709 56.9442 33.4192 54.8295 30.313L 61.768 23.3745C 65.5973 28.3006 67.8784 34.4897 67.8784 41.212C 67.8787 57.2786 54.8541 70.303 38.7878 70.303ZM 37.145 42.8548C 38.5648 44.275 40.8675 44.275 42.2878 42.8548L 47.7173 37.4253C 48.2111 38.5889 48.4848 39.8687 48.4848 41.2122C 48.4848 46.5678 44.1433 50.9092 38.7878 50.9092C 33.4323 50.9092 29.0908 46.5678 29.0908 41.2122C 29.0908 35.8566 33.4323 31.5152 38.7878 31.5152C 40.1314 31.5152 41.4111 31.7886 42.5745 32.2827L 37.145 37.7122C 35.7252 39.1322 35.7252 41.4347 37.145 42.8548Z"/>
</defs>
</svg>
