<svg width="95" height="80" viewBox="0 0 95 80" version="1.1" xmlns="http://www.w3.org/2000/svg" xmlns:xlink="http://www.w3.org/1999/xlink">
<title>faculty</title>
<desc>Created using Figma</desc>
<g id="Canvas" transform="translate(47 -791)">
<g id="faculty">
<g id="Subtract">
<use xlink:href="#path0_fill" transform="translate(-47 791)" fill="#008ED1"/>
</g>
<g id="Vector">
<use xlink:href="#path1_fill" transform="translate(-20.735 845.243)" fill="#008ED1"/>
</g>
<g id="Ellipse">
<use xlink:href="#path2_fill" transform="translate(-1.91684 825.222)" fill="#008ED1"/>
</g>
<g id="Faculty">
<use xlink:href="#path3_fill" transform="translate(-31.6929 803.34)" fill="#008ED1"/>
<use xlink:href="#path4_fill" transform="translate(-31.6929 803.34)" fill="#008ED1"/>
<use xlink:href="#path5_fill" transform="translate(-31.6929 803.34)" fill="#008ED1"/>
<use xlink:href="#path6_fill" transform="translate(-31.6929 803.34)" fill="#008ED1"/>
<use xlink:href="#path7_fill" transform="translate(-31.6929 803.34)" fill="#008ED1"/>
<use xlink:href="#path8_fill" transform="translate(-31.6929 803.34)" fill="#008ED1"/>
<use xlink:href="#path9_fill" transform="translate(-31.6929 803.34)" fill="#008ED1"/>
</g>
<g id="Line">
<use xlink:href="#path10_stroke" transform="matrix(0.336393 0.941722 -0.941762 0.33628 -28.3554 818.387)" fill="#008ED1"/>
</g>
</g>
</g>
<defs>
<path id="path0_fill" fill-rule="evenodd" d="M 6.24365 6.24243L 87.923 6.24243L 87.923 58.5265L 74.4651 58.5265L 74.4651 64.769L 87.923 64.769C 91.3712 64.769 94.1666 61.9741 94.1666 58.5265L 94.1666 6.24243C 94.1666 2.7948 91.3712 0 87.923 0L 6.24365 0C 2.79541 0 0 2.7948 0 6.24243L 0 58.5265C 0 61.9741 2.79541 64.769 6.24365 64.769L 23.7087 64.769L 23.7087 58.5265L 6.24365 58.5265L 6.24365 6.24243Z"/>
<path id="path1_fill" d="M 0.0870749 0.786478C -0.745414 1.61881 4.59639 17.7799 7.37135 25.7564L 55.2395 25.7564L 55.2395 22.6352C 52.1177 15.3523 38.5897 12.2311 37.5491 12.2311C 36.5085 12.2311 33.3867 14.3119 30.2649 14.3119C 27.143 14.3119 26.1024 12.2311 21.94 12.2311C 18.61 12.2311 15.0026 15.0055 13.6151 16.3927C 12.2276 14.6587 8.82827 9.94212 6.33081 4.94813C 3.20897 -1.29435 1.12769 -0.253935 0.0870749 0.786478Z"/>
<path id="path2_fill" d="M 22.8934 14.5658C 22.8934 22.6102 17.7686 29.1316 11.4467 29.1316C 5.12487 29.1316 0 22.6102 0 14.5658C 0 6.52132 5.12487 0 11.4467 0C 17.7686 0 22.8934 6.52132 22.8934 14.5658Z"/>
<path id="path3_fill" d="M 0 13.5587L 0 0.280912L 8.56007 0.280912L 8.56007 3.09003L 2.9595 3.09003L 2.9595 5.89914L 7.88575 5.89914L 7.88575 8.59589L 2.97823 8.59589L 2.97823 13.5587L 0 13.5587Z"/>
<path id="path4_fill" d="M 9.23819 10.993C 9.23819 10.581 9.30687 10.2127 9.44423 9.88809C 9.59408 9.56348 9.79387 9.28881 10.0436 9.06408C 10.2934 8.82687 10.5806 8.63959 10.9052 8.50226C 11.2424 8.35244 11.6045 8.24632 11.9916 8.18389L 14.1832 7.8468C 14.4329 7.80934 14.6077 7.73443 14.7076 7.62207C 14.8075 7.5097 14.8575 7.37237 14.8575 7.21006C 14.8575 6.93539 14.7389 6.69818 14.5016 6.49842C 14.2768 6.29866 13.9397 6.19878 13.4901 6.19878C 12.9906 6.19878 12.6035 6.34236 12.3288 6.62951C 12.0666 6.90418 11.923 7.21631 11.898 7.56589L 9.4255 7.06024C 9.45047 6.72315 9.55037 6.37357 9.72519 6.01151C 9.90002 5.64944 10.1498 5.31859 10.4744 5.01895C 10.8116 4.71931 11.2299 4.46961 11.7294 4.26986C 12.2289 4.0701 12.8221 3.97022 13.5089 3.97022C 14.2581 3.97022 14.895 4.0701 15.4194 4.26986C 15.9439 4.45713 16.3685 4.71931 16.6931 5.05641C 17.0303 5.38102 17.2675 5.76181 17.4049 6.19878C 17.5548 6.63576 17.6297 7.09146 17.6297 7.56589L 17.6297 12.1167C 17.6297 12.4787 17.6422 12.7971 17.6671 13.0718C 17.7046 13.3464 17.7296 13.5087 17.7421 13.5587L 15.1759 13.5587C 15.1634 13.5212 15.1447 13.4213 15.1197 13.259C 15.0947 13.0842 15.0823 12.8345 15.0823 12.5099C 14.8325 12.9094 14.4891 13.2278 14.0521 13.465C 13.615 13.7022 13.0843 13.8209 12.4599 13.8209C 11.9479 13.8209 11.4922 13.7397 11.0926 13.5774C 10.693 13.4276 10.3558 13.2216 10.0811 12.9594C 9.80636 12.6972 9.59408 12.3976 9.44423 12.0605C 9.30687 11.7234 9.23819 11.3676 9.23819 10.993ZM 13.153 11.7608C 13.3653 11.7608 13.5713 11.7359 13.7711 11.6859C 13.9834 11.6235 14.1644 11.5236 14.3143 11.3863C 14.4766 11.2365 14.6077 11.0429 14.7076 10.8057C 14.8075 10.5685 14.8575 10.2689 14.8575 9.90681L 14.8575 9.49481L 13.0968 9.77572C 12.7971 9.82566 12.5473 9.93178 12.3475 10.0941C 12.1477 10.2439 12.0478 10.4811 12.0478 10.8057C 12.0478 11.0554 12.129 11.2802 12.2913 11.4799C 12.4662 11.6672 12.7534 11.7608 13.153 11.7608Z"/>
<path id="path5_fill" d="M 24.2599 6.59206C 23.9602 6.59206 23.6792 6.642 23.417 6.74188C 23.1672 6.84176 22.9425 6.99158 22.7427 7.19134C 22.5553 7.3911 22.4055 7.63455 22.2931 7.92171C 22.1807 8.20886 22.1245 8.53971 22.1245 8.91426C 22.1245 9.28881 22.1807 9.61966 22.2931 9.90681C 22.418 10.1815 22.5741 10.4187 22.7614 10.6185C 22.9612 10.8182 23.1922 10.968 23.4544 11.0679C 23.7167 11.1678 23.9976 11.2177 24.2973 11.2177C 24.8468 11.2177 25.2776 11.0742 25.5898 10.787C 25.9144 10.4999 26.1267 10.1815 26.2266 9.83191L 28.7366 10.5997C 28.6367 11.0117 28.4619 11.4113 28.2121 11.7983C 27.9748 12.1853 27.6689 12.5287 27.2943 12.8283C 26.9197 13.1279 26.4826 13.3714 25.9831 13.5587C 25.4836 13.7459 24.9217 13.8396 24.2973 13.8396C 23.598 13.8396 22.9425 13.721 22.3306 13.4838C 21.7312 13.2341 21.2067 12.8907 20.7572 12.4537C 20.3076 12.0168 19.9517 11.4986 19.6895 10.8994C 19.4273 10.3001 19.2962 9.63839 19.2962 8.91426C 19.2962 8.19013 19.421 7.52843 19.6708 6.92915C 19.933 6.31739 20.2826 5.79302 20.7197 5.35605C 21.1693 4.91907 21.6875 4.58198 22.2744 4.34477C 22.8738 4.09507 23.5169 3.97022 24.2037 3.97022C 24.8405 3.97022 25.4149 4.06385 25.9269 4.25113C 26.4389 4.42592 26.8822 4.66313 27.2568 4.96277C 27.6314 5.26241 27.9374 5.61199 28.1746 6.01151C 28.4119 6.39854 28.5805 6.79806 28.6804 7.21006L 26.133 7.97789C 26.083 7.8031 26.0081 7.63455 25.9082 7.47225C 25.8083 7.29746 25.6834 7.14764 25.5336 7.02279C 25.3837 6.88546 25.2027 6.77933 24.9904 6.70442C 24.7781 6.62951 24.5346 6.59206 24.2599 6.59206Z"/>
<path id="path6_fill" d="M 36.2998 13.5587C 36.2748 13.4713 36.2561 13.3277 36.2436 13.1279C 36.2311 12.9157 36.2249 12.7471 36.2249 12.6223C 35.9751 13.0218 35.613 13.3152 35.1385 13.5025C 34.6764 13.6773 34.2082 13.7647 33.7337 13.7647C 33.1717 13.7647 32.666 13.671 32.2164 13.4838C 31.7794 13.284 31.411 13.0218 31.1113 12.6972C 30.8116 12.3601 30.5806 11.9731 30.4183 11.5361C 30.2684 11.0991 30.1935 10.6309 30.1935 10.1315L 30.1935 4.25113L 33.0406 4.25113L 33.0406 9.53227C 33.0406 9.98173 33.1592 10.3625 33.3965 10.6746C 33.6462 10.9868 34.0271 11.1428 34.5391 11.1428C 35.0136 11.1428 35.3882 10.9992 35.6629 10.7121C 35.9502 10.4125 36.0938 10.0254 36.0938 9.55099L 36.0938 4.25113L 38.9409 4.25113L 38.9409 11.8919C 38.9409 12.3164 38.9534 12.6847 38.9783 12.9968C 39.0033 13.2965 39.022 13.4838 39.0345 13.5587L 36.2998 13.5587Z"/>
<path id="path7_fill" d="M 41.4453 13.5587L 41.4453 0L 44.2924 0L 44.2924 13.5587L 41.4453 13.5587Z"/>
<path id="path8_fill" d="M 50.2139 4.25113L 52.0308 4.25113L 52.0308 6.74188L 50.2139 6.74188L 50.2139 10.2252C 50.2139 10.6122 50.3075 10.8744 50.4948 11.0117C 50.6821 11.1366 50.9319 11.199 51.2441 11.199C 51.3939 11.199 51.5313 11.1928 51.6561 11.1803C 51.7935 11.1553 51.9059 11.1303 51.9933 11.1054L 51.9933 13.465C 51.9309 13.49 51.781 13.5399 51.5438 13.6148C 51.3065 13.6898 50.9631 13.7272 50.5136 13.7272C 49.5395 13.7272 48.7778 13.465 48.2284 12.9407C 47.6789 12.4038 47.4042 11.6672 47.4042 10.7308L 47.4042 6.74188L 45.7559 6.74188L 45.7559 4.25113L 46.2242 4.25113C 46.7112 4.25113 47.0733 4.10755 47.3106 3.8204C 47.5478 3.53324 47.6664 3.17118 47.6664 2.73421L 47.6664 1.53565L 50.2139 1.53565L 50.2139 4.25113Z"/>
<path id="path9_fill" d="M 54.9601 17.1356L 57.0767 12.3039L 53.1619 4.25113L 56.3462 4.25113L 58.6127 9.23263L 60.6731 4.25113L 63.6888 4.25113L 57.9571 17.1356L 54.9601 17.1356Z"/>
<path id="path10_stroke" d="M -0.0215387 1.38614C -0.228301 1.39807 -0.386242 1.57536 -0.374309 1.78212C -0.362375 1.98889 -0.185087 2.14683 0.0216754 2.13489L -0.0215387 1.38614ZM 30.5255 0.374377C 30.7323 0.362444 30.8902 0.185156 30.8783 -0.021607C 30.8663 -0.22837 30.689 -0.38631 30.4823 -0.374377L 30.5255 0.374377ZM 0.0216754 2.13489L 30.5255 0.374377L 30.4823 -0.374377L -0.0215387 1.38614L 0.0216754 2.13489Z"/>
</defs>
</svg>
