<svg width="47" height="47" viewBox="0 0 47 47" version="1.1" xmlns="http://www.w3.org/2000/svg" xmlns:xlink="http://www.w3.org/1999/xlink">
<title>linked_inlogo</title>
<desc>Created using Figma</desc>
<g id="Canvas" transform="translate(-3 1102)">
<g id="linked_inlogo">
<g id="Ellipse">
<mask id="mask0_outline_ins">
<use xlink:href="#path0_fill" fill="white" transform="translate(3 -1102)"/>
</mask>
<g mask="url(#mask0_outline_ins)">
<use xlink:href="#path1_stroke_2x" transform="translate(3 -1102)" fill="#FFFFFF"/>
</g>
</g>
<g id="linkedin">
<g id="XMLID 801">
<g id="XMLID 802">
<use xlink:href="#path2_fill" transform="translate(17.3338 -1083.25)" fill="#FFFFFF"/>
</g>
<g id="XMLID 803">
<use xlink:href="#path3_fill" transform="translate(17 -1090)" fill="#FFFFFF"/>
</g>
<g id="XMLID 804">
<use xlink:href="#path4_fill" transform="translate(24.1926 -1083.59)" fill="#FFFFFF"/>
</g>
</g>
</g>
</g>
</g>
<defs>
<path id="path0_fill" d="M 47 23.5C 47 36.4787 36.4787 47 23.5 47C 10.5213 47 0 36.4787 0 23.5C 0 10.5213 10.5213 0 23.5 0C 36.4787 0 47 10.5213 47 23.5Z"/>
<path id="path1_stroke_2x" d="M 44 23.5C 44 34.8218 34.8218 44 23.5 44L 23.5 50C 38.1355 50 50 38.1355 50 23.5L 44 23.5ZM 23.5 44C 12.1782 44 3 34.8218 3 23.5L -3 23.5C -3 38.1355 8.86445 50 23.5 50L 23.5 44ZM 3 23.5C 3 12.1782 12.1782 3 23.5 3L 23.5 -3C 8.86445 -3 -3 8.86445 -3 23.5L 3 23.5ZM 23.5 3C 34.8218 3 44 12.1782 44 23.5L 50 23.5C 50 8.86445 38.1355 -3 23.5 -3L 23.5 3Z"/>
<path id="path2_fill" d="M 4.55449 2.27907e-07L 0.33871 2.27907e-07C 0.151606 2.27907e-07 3.10098e-09 0.152009 3.10098e-09 0.339457L 3.10098e-09 13.9128C 3.10098e-09 14.1003 0.151606 14.2523 0.33871 14.2523L 4.55449 14.2523C 4.7416 14.2523 4.8932 14.1003 4.8932 13.9128L 4.8932 0.339457C 4.8932 0.152009 4.7416 2.27907e-07 4.55449 2.27907e-07Z"/>
<path id="path3_fill" d="M 2.78189 -6.31275e-10C 1.24794 -6.31275e-10 0 1.24934 0 2.78497C 0 4.32128 1.24794 5.57109 2.78189 5.57109C 4.31462 5.57109 5.56154 4.32121 5.56154 2.78497C 5.56161 1.24934 4.31462 -6.31275e-10 2.78189 -6.31275e-10Z"/>
<path id="path4_fill" d="M 8.41883 1.07738e-07C 6.72562 1.07738e-07 5.47395 0.729492 4.71477 1.55838L 4.71477 0.676809C 4.71477 0.489361 4.56316 0.337352 4.37606 0.337352L 0.33871 0.337352C 0.151607 0.337352 1.6952e-07 0.489361 1.6952e-07 0.676809L 1.6952e-07 14.2502C 1.6952e-07 14.4377 0.151607 14.5896 0.33871 14.5896L 4.54528 14.5896C 4.73238 14.5896 4.88399 14.4377 4.88399 14.2502L 4.88399 7.53451C 4.88399 5.27149 5.49733 4.38985 7.07138 4.38985C 8.78566 4.38985 8.92188 5.80321 8.92188 7.65094L 8.92188 14.2502C 8.92188 14.4378 9.07349 14.5897 9.26059 14.5897L 13.4687 14.5897C 13.6558 14.5897 13.8074 14.4378 13.8074 14.2502L 13.8074 6.80502C 13.8074 3.43998 13.1672 1.07738e-07 8.41883 1.07738e-07Z"/>
</defs>
</svg>
