<svg width="81" height="80" viewBox="0 0 81 80" version="1.1" xmlns="http://www.w3.org/2000/svg" xmlns:xlink="http://www.w3.org/1999/xlink">
<title>magnifying-glass (3)</title>
<desc>Created using Figma</desc>
<g id="Canvas" transform="translate(41 -53)">
<g id="magnifying-glass (3)">
<g id="Group">
<g id="Vector">
<use xlink:href="#path0_fill" transform="translate(-41 53)" fill="#008ED4"/>
</g>
</g>
</g>
</g>
<defs>
<path id="path0_fill" d="M 78.2226 69.5199L 61.732 53.03C 65.7061 47.2932 67.6942 40.8978 67.6942 33.8472C 67.6942 29.2638 66.8044 24.8804 65.0248 20.6979C 63.2464 16.5146 60.8423 12.909 57.8134 9.88013C 54.7845 6.85124 51.1794 4.44709 46.997 2.66852C 42.8133 0.889452 38.4302 4.39119e-12 33.8468 4.39119e-12C 29.2638 4.39119e-12 24.8804 0.889452 20.6979 2.66852C 16.5146 4.44709 12.909 6.85124 9.88013 9.88013C 6.8509 12.909 4.44709 16.5153 2.66836 20.6979C 0.889452 24.8809 0 29.2638 0 33.8472C 0 38.4302 0.889452 42.8121 2.66836 46.9958C 4.44692 51.1784 6.8509 54.7835 9.88013 57.8124C 12.909 60.8423 16.5153 63.2454 20.6979 65.025C 24.8809 66.8037 29.2638 67.693 33.8468 67.693C 40.899 67.693 47.2934 65.7048 53.0305 61.731L 69.5211 78.1731C 70.6749 79.3908 72.1153 80 73.8476 80C 75.5142 80 76.9573 79.3909 78.1743 78.1731C 79.3918 76.9556 80.001 75.5132 80.001 73.8466C 80.0015 72.1488 79.4086 70.7059 78.2226 69.5199ZM 49.0635 49.0622C 44.8488 53.2775 39.777 55.3852 33.8468 55.3852C 27.9177 55.3852 22.8459 53.277 18.6308 49.0622C 14.4158 44.8474 12.3084 39.7763 12.3084 33.8462C 12.3084 27.917 14.4163 22.8444 18.6308 18.6302C 22.845 14.415 27.9177 12.3077 33.8468 12.3077C 39.7763 12.3077 44.8481 14.4158 49.0635 18.6302C 53.2789 22.8444 55.3863 27.917 55.3863 33.8462C 55.3863 39.7763 53.2782 44.8474 49.0635 49.0622Z"/>
</defs>
</svg>
