<svg width="11" height="12" viewBox="0 0 11 12" version="1.1" xmlns="http://www.w3.org/2000/svg" xmlns:xlink="http://www.w3.org/1999/xlink">
<title>&#239;&#132;&#129;</title>
<desc>Created using Figma</desc>
<g id="Canvas" transform="translate(566 -975)">
<g id="&#239;&#132;&#129;">
<use xlink:href="#path0_fill" transform="translate(-566 970.791)" fill="#2F62AA"/>
</g>
</g>
<defs>
<path id="path0_fill" d="M 6.52902 10.3147C 6.60342 10.3891 6.64062 10.4747 6.64062 10.5714C 6.64062 10.6682 6.60342 10.7537 6.52902 10.8281L 1.32812 16.029C 1.25372 16.1034 1.16815 16.1406 1.07143 16.1406C 0.974702 16.1406 0.889137 16.1034 0.814732 16.029L 0.256696 15.471C 0.182292 15.3966 0.145089 15.311 0.145089 15.2143C 0.145089 15.1176 0.182292 15.032 0.256696 14.9576L 4.64286 10.5714L 0.256696 6.18527C 0.182292 6.11086 0.145089 6.0253 0.145089 5.92857C 0.145089 5.83185 0.182292 5.74628 0.256696 5.67188L 0.814732 5.11384C 0.889137 5.03943 0.974702 5.00223 1.07143 5.00223C 1.16815 5.00223 1.25372 5.03943 1.32812 5.11384L 6.52902 10.3147ZM 10.8147 10.3147C 10.8891 10.3891 10.9263 10.4747 10.9263 10.5714C 10.9263 10.6682 10.8891 10.7537 10.8147 10.8281L 5.61384 16.029C 5.53943 16.1034 5.45387 16.1406 5.35714 16.1406C 5.26042 16.1406 5.17485 16.1034 5.10045 16.029L 4.54241 15.471C 4.46801 15.3966 4.4308 15.311 4.4308 15.2143C 4.4308 15.1176 4.46801 15.032 4.54241 14.9576L 8.92857 10.5714L 4.54241 6.18527C 4.46801 6.11086 4.4308 6.0253 4.4308 5.92857C 4.4308 5.83185 4.46801 5.74628 4.54241 5.67188L 5.10045 5.11384C 5.17485 5.03943 5.26042 5.00223 5.35714 5.00223C 5.45387 5.00223 5.53943 5.03943 5.61384 5.11384L 10.8147 10.3147Z"/>
</defs>
</svg>
